<?xml version="1.0" encoding="UTF-8"?>
<svg xmlns="http://www.w3.org/2000/svg" viewBox="0 0 64 64">
  <rect width="64" height="64" rx="12" fill="#003527"/>
  <circle cx="32" cy="32" r="13" fill="#b0f0d6"/>
  <rect x="30" y="6" width="4" height="10" rx="2" fill="#b0f0d6" transform="rotate(0 32 32)"/>
  <rect x="30" y="6" width="4" height="10" rx="2" fill="#b0f0d6" transform="rotate(45 32 32)"/>
  <rect x="30" y="6" width="4" height="10" rx="2" fill="#b0f0d6" transform="rotate(90 32 32)"/>
  <rect x="30" y="6" width="4" height="10" rx="2" fill="#b0f0d6" transform="rotate(135 32 32)"/>
  <rect x="30" y="6" width="4" height="10" rx="2" fill="#b0f0d6" transform="rotate(180 32 32)"/>
  <rect x="30" y="6" width="4" height="10" rx="2" fill="#b0f0d6" transform="rotate(225 32 32)"/>
  <rect x="30" y="6" width="4" height="10" rx="2" fill="#b0f0d6" transform="rotate(270 32 32)"/>
  <rect x="30" y="6" width="4" height="10" rx="2" fill="#b0f0d6" transform="rotate(315 32 32)"/>
</svg>
